<?xml version="1.0" encoding="UTF-8"?>
<svg version="1.1" xmlns="http://www.w3.org/2000/svg" width="506" height="529">
<path d="M0 0 C166.98 0 333.96 0 506 0 C506 174.57 506 349.14 506 529 C339.02 529 172.04 529 0 529 C0 354.43 0 179.86 0 0 Z " fill="#F7F8F7" transform="translate(0,0)"/>
<path d="M0 0 C0.00146656 0.79606313 0.00293312 1.59212626 0.00444412 2.41231251 C0.04146635 21.76599471 0.10041992 41.11949573 0.18390274 60.47303486 C0.2237431 69.83220527 0.25611013 79.191291 0.27099609 88.55053711 C0.28398679 96.70633045 0.31088505 104.86193784 0.35461307 113.01762646 C0.37728628 117.33761993 0.39290719 121.65738354 0.39188385 125.97744179 C0.39114067 130.0413259 0.40895242 134.1047008 0.44116783 138.16845322 C0.44970602 139.66201011 0.45139031 141.15562387 0.44580269 142.64919472 C0.43920122 144.68443197 0.45937622 146.71970415 0.48101807 148.75483704 C0.48470524 149.89509496 0.48839241 151.03535288 0.49219131 152.21016407 C0.71827814 155.1254146 0.71827814 155.1254146 3.00509262 156.70282269 C3.66341206 157.1308912 4.32173149 157.55895971 5 158 C5.4375 161 5.4375 161 5 164 C4.50435547 164.41459473 4.00871094 164.82918945 3.49804688 165.25634766 C1.17650821 167.95850364 1.61359299 170.39660032 1.59375 173.8984375 C1.57749573 174.90639877 1.57749573 174.90639877 1.56091309 175.9347229 C1.5266655 178.08157969 1.51106749 180.22790608 1.5 182.375 C1.48538765 185.19581956 1.45160352 188.01546306 1.40625 190.8359375 C1.39561523 192.71611572 1.39561523 192.71611572 1.38476562 194.63427734 C0.84541142 199.35225775 -0.96879989 201.87781164 -4.125 205.3125 C-8.13751351 207.66767097 -11.45313931 207.80050364 -16 207 C-20.07381732 204.92605664 -22.36351035 203.25487308 -24 199 C-24.30078125 196.125 -24.30078125 196.125 -24.3125 193 C-24.32925781 191.96875 -24.34601563 190.9375 -24.36328125 189.875 C-23.96081368 186.68988032 -23.13430263 185.34266462 -21 183 C-20.30062798 184.4317616 -19.61587282 185.87067032 -18.9375 187.3125 C-18.55464844 188.11300781 -18.17179687 188.91351563 -17.77734375 189.73828125 C-17 192 -17 192 -18 195 C-18.33 194.67 -18.66 194.34 -19 194 C-19.21620175 196.6664882 -19.30894168 198.44004321 -18 200.8125 C-14.86940917 202.6712883 -11.55225172 202.55145843 -8 202 C-4.75150023 200.27773504 -4.75150023 200.27773504 -4 197 C-3.77378689 192.85138864 -3.77178107 188.7026803 -3.75976562 184.54833984 C-3.75003374 182.50707648 -3.71898369 180.46680957 -3.6875 178.42578125 C-3.68234375 177.14058594 -3.6771875 175.85539063 -3.671875 174.53125 C-3.65785645 172.76104492 -3.65785645 172.76104492 -3.64355469 170.95507812 C-4.04271212 167.64589899 -4.58959992 167.10185634 -7 165 C-7.375 161.5 -7.375 161.5 -7 158 C-6.50548938 157.55143992 -6.01097876 157.10287985 -5.50148296 156.64072704 C-3.31221943 154.24843624 -3.6154112 152.45217846 -3.60127258 149.24836731 C-3.58873444 148.04943344 -3.57619629 146.85049957 -3.5632782 145.61523438 C-3.56471329 144.29821533 -3.56614838 142.98119629 -3.56762695 141.62426758 C-3.55861186 140.22481926 -3.54828526 138.82537886 -3.53674316 137.4259491 C-3.50911706 133.62457436 -3.49988111 129.8233492 -3.49388909 126.02188706 C-3.48451995 122.04998717 -3.45831781 118.07819966 -3.43388367 114.10636902 C-3.39017467 106.58413971 -3.36165479 99.06193214 -3.33856028 91.53961438 C-3.31153214 82.97616079 -3.26761921 74.41282002 -3.22227156 65.84944689 C-3.1293623 48.2330241 -3.05771038 30.61657148 -3 13 C-4.10827148 13.65540771 -5.21654297 14.31081543 -6.35839844 14.98608398 C-9.19313243 16.66248418 -10.91121624 17.33196877 -14.25 17.0625 C-19.69181765 17.42039357 -22.04311261 20.7582488 -25.54833984 24.62695312 C-30.81414026 30.24137325 -36.96171868 33.01959198 -44 36 C-45.27617188 36.56654297 -45.27617188 36.56654297 -46.578125 37.14453125 C-49.21713322 38.07669706 -51.59547256 38.34625083 -54.375 38.625 C-60.91365977 39.73665969 -63.12495246 42.94958259 -67 48 C-74.08286291 55.60033234 -84.26494509 61.86650667 -94.75 62.625 C-98.65853691 63.12858894 -99.79670644 63.78331958 -102.55078125 66.71875 C-104.28408142 68.99173223 -105.91453506 71.33391639 -107.55859375 73.671875 C-114.78192275 83.83655957 -126.97422879 89.40638758 -138.71875 92.78125 C-142.05889154 94.56570918 -143.38975018 97.43061679 -145.1875 100.625 C-150.14867613 108.87885206 -156.76978156 115.58883232 -166 119 C-168.67801707 119.48868925 -171.28126649 119.76562642 -174 120 C-173.67 120.99 -173.34 121.98 -173 123 C-172.5093083 127.07274114 -172.0512784 131.20145827 -174.01171875 134.91796875 C-176.08145947 137.43522097 -178.29298326 139.19532217 -181 141 C-184.35546875 141.1953125 -184.35546875 141.1953125 -188.1875 141.125 C-189.45980469 141.10695313 -190.73210937 141.08890625 -192.04296875 141.0703125 C-193.01878906 141.04710937 -193.99460937 141.02390625 -195 141 C-194.43732422 141.60521484 -194.43732422 141.60521484 -193.86328125 142.22265625 C-187.13623575 150.20360947 -183.06536164 161.47553084 -183.625 171.96875 C-184.14193983 174.76884076 -185.23117611 176.78897013 -187 179 C-191.05202252 178.4414268 -193.22561258 176.32735816 -196.25 173.6875 C-201.56801354 169.24047935 -206.1559683 165.69192571 -213.125 164.4375 C-217.06050915 165.20749092 -219.43381703 167.04018424 -222 170 C-226.31706851 176.90730962 -226.05071758 185.26573228 -224.3203125 193.0625 C-223.61981833 195.41082331 -222.86874978 197.70918957 -222 200 C-221.24074219 200.10957031 -220.48148437 200.21914063 -219.69921875 200.33203125 C-218.70535156 200.49058594 -217.71148437 200.64914062 -216.6875 200.8125 C-215.20830078 201.03873047 -215.20830078 201.03873047 -213.69921875 201.26953125 C-210.85532234 202.039153 -209.69913073 202.62121698 -208 205 C-208.24453124 208.34192692 -208.60543557 209.60543557 -211 212 C-211.07108525 215.12775081 -210.71126447 217.16539487 -208.6484375 219.5859375 C-203.75025718 223.99206317 -198.22616859 226.92461047 -192 229 C-191.76023437 228.29875 -191.52046875 227.5975 -191.2734375 226.875 C-189.78295538 223.50998515 -187.86539426 220.91772276 -185.625 218 C-184.85414063 216.989375 -184.08328125 215.97875 -183.2890625 214.9375 C-182.53367187 213.968125 -181.77828125 212.99875 -181 212 C-180.02546875 210.71222656 -180.02546875 210.71222656 -179.03125 209.3984375 C-171.01244862 199.93008356 -155.21738236 186.79460193 -142.375 185.6875 C-141.199375 185.8421875 -141.199375 185.8421875 -140 186 C-140.48093513 190.95080285 -143.03830353 194.23987988 -145.8125 198.1875 C-150.85772543 205.65049245 -154.81112696 213.44263659 -158.5625 221.625 C-159.07466064 222.7389917 -159.58682129 223.8529834 -160.11450195 225.00073242 C-167.16669823 240.66924921 -166.63666976 251.22079942 -160.8125 267.375 C-158.57807424 273.05016727 -155.76361427 278.22721779 -152.59106445 283.41943359 C-150 287.70573229 -150 287.70573229 -150 291 C-162.45680413 290.59158019 -171.61746865 283.84263599 -180 275 C-184.07282802 270.13729018 -186.91453876 265.25439606 -189.36621094 259.4074707 C-191.87958544 253.2789752 -191.87958544 253.2789752 -197.109375 249.6640625 C-200.13038167 249.17474452 -202.94363678 248.92973878 -206 249 C-206.28875 249.78375 -206.5775 250.5675 -206.875 251.375 C-208 254 -208 254 -210 256 C-211.96484375 255.8671875 -211.96484375 255.8671875 -214 255 C-215.37890625 253.2578125 -215.37890625 253.2578125 -216.5625 251.125 C-219.84964389 245.28358364 -223.05617782 243.31478083 -229.3125 240.9375 C-229.96412109 240.68162109 -230.61574219 240.42574219 -231.28710938 240.16210938 C-235.15504867 238.65597486 -239.05027635 237.27983293 -243 236 C-243.36738281 236.95132813 -243.36738281 236.95132813 -243.7421875 237.921875 C-254.49555189 264.23756178 -254.49555189 264.23756178 -265.25 271.0625 C-268 272 -268 272 -272 272 C-271.99476318 270.99622314 -271.98952637 269.99244629 -271.98413086 268.95825195 C-271.9659826 265.22160743 -271.95453213 261.48496679 -271.94506836 257.74829102 C-271.94005058 256.13337549 -271.93323489 254.51846448 -271.92456055 252.90356445 C-271.91238286 250.57762535 -271.90674605 248.2517465 -271.90234375 245.92578125 C-271.89460182 244.84892815 -271.89460182 244.84892815 -271.88670349 243.75032043 C-271.88628885 240.01549947 -272.23809158 236.64382794 -273 233 C-273.04334345 231.09424283 -273.04009632 229.18707826 -273 227.28125 C-272.74067656 210.90533612 -272.74067656 210.90533612 -280.51171875 197.11328125 C-288.91695807 186.59683583 -292.25832726 173.08413651 -294 160 C-294.185625 158.88882813 -294.37125 157.77765625 -294.5625 156.6328125 C-295.09034535 152.24981092 -295.10868131 147.97103854 -295.0625 143.5625 C-295.05798828 142.73556641 -295.05347656 141.90863281 -295.04882812 141.05664062 C-295.03715811 139.03772854 -295.01922718 137.01885426 -295 135 C-305.73250073 133.32221453 -316.22030146 134.02634981 -327 135 C-328.20463439 132.13549149 -327.99719333 130.99196747 -326.953125 128.00390625 C-319.34511656 112.63084332 -308.19040875 99.08860719 -292.75 91.1875 C-285.54342198 87.47881226 -282.63943599 82.54124568 -280 75 C-280.99 74.67 -281.98 74.34 -283 74 C-283.20302734 72.51113281 -283.20302734 72.51113281 -283.41015625 70.9921875 C-285.41035113 57.84595549 -289.73895295 46.91848746 -298.8125 36.8671875 C-300 35 -300 35 -299.57421875 32.88330078 C-299.38472656 32.26181152 -299.19523437 31.64032227 -299 31 C-283.47094781 30.0051086 -269.59654793 30.92021034 -256.31640625 39.79296875 C-254.07209604 41.19548252 -254.07209604 41.19548252 -251.54296875 40.96484375 C-248.22204305 39.70483047 -246.03557757 37.84418984 -243.3125 35.5625 C-226.72285826 22.26050565 -205.4774591 12.43012494 -185 7 C-183.1832899 6.47892277 -181.36691471 5.95667722 -179.55078125 5.43359375 C-154.92521922 -1.51068611 -154.92521922 -1.51068611 -146.92578125 1.87890625 C-145.0684243 3.05220167 -143.55170626 4.44829374 -142 6 C-140.71705665 24.34608987 -144.18777374 40.30482824 -154 56 C-157.32298137 59 -157.32298137 59 -160 59 C-160.061875 59.845625 -160.12375 60.69125 -160.1875 61.5625 C-161.07514447 65.31791891 -162.34529237 67.06588379 -164.84375 69.8984375 C-166.27432103 72.1595825 -166.27432103 72.1595825 -166.3125 75.80859375 C-166.80769166 80.74460971 -169.15545083 83.20727139 -172.5 86.6875 C-173.59458361 87.89415478 -174.68435404 89.10519133 -175.76953125 90.3203125 C-176.31303223 90.9277832 -176.8565332 91.53525391 -177.41650391 92.16113281 C-179.86127817 95.00017687 -182.04921966 97.98872202 -184.1875 101.0625 C-184.90292969 102.08472656 -185.61835938 103.10695313 -186.35546875 104.16015625 C-187.93248526 106.8834128 -188.61909557 108.9015983 -189 112 C-188.36835938 111.47792969 -187.73671875 110.95585937 -187.0859375 110.41796875 C-180.05555399 104.63360422 -172.94080228 98.96876178 -165.75976562 93.37304688 C-164.05019932 92.03916773 -162.3453087 90.69948475 -160.640625 89.359375 C-154.6423651 84.66779923 -148.53786767 80.22880729 -142.14453125 76.08203125 C-139.52053928 74.3446552 -136.95598971 72.5558736 -134.390625 70.734375 C-128.7098973 66.74295682 -122.8441416 63.08297621 -116.9375 59.4375 C-108.55148545 54.25979395 -108.55148545 54.25979395 -100.31640625 48.84765625 C-96.74767978 46.44445725 -93.09229158 44.31718581 -89.31298828 42.26416016 C-86.88245123 40.9357539 -84.48517289 39.55878989 -82.08984375 38.16796875 C-72.18314033 32.43065048 -62.23752297 26.93996495 -51.93701172 21.94433594 C-48.52757748 20.28216155 -45.1406139 18.57513345 -41.75 16.875 C-40.4101658 16.2070121 -39.07032228 15.53904287 -37.73046875 14.87109375 C-35.45310598 13.73327916 -33.18728147 12.57969956 -30.92578125 11.41015625 C-25.07141904 8.3991132 -19.1261219 5.68255578 -13.0625 3.125 C-12.34006104 2.81425537 -11.61762207 2.50351074 -10.87329102 2.18334961 C-10.18420654 1.89854736 -9.49512207 1.61374512 -8.78515625 1.3203125 C-8.17551025 1.06523926 -7.56586426 0.81016602 -6.93774414 0.54736328 C-4.5745663 -0.12017417 -2.44544113 -0.03516725 0 0 Z " fill="#030303" transform="translate(451,123)"/>
<path d="M0 0 C0.73089844 0.36351562 0.73089844 0.36351562 1.4765625 0.734375 C13.87788827 6.59681991 25.86284525 8.63928114 39.375 9.25 C40.80476719 9.32665267 42.23445658 9.4047712 43.6640625 9.484375 C47.10864849 9.67306498 50.55384291 9.8422195 54 10 C52.50800939 13.98974274 50.7032202 16.70545038 48 20 C47.4740625 21.11375 47.4740625 21.11375 46.9375 22.25 C46 24 46 24 43 25 C32.34168458 26.29979456 22.64693876 23.04544025 14.125 16.625 C9.0393551 12.33398711 3.57365661 7.67580756 0 2 C0 1.34 0 0.68 0 0 Z " fill="#F3F3F2" transform="translate(232,174)"/>
<path d="M0 0 C0.66 0 1.32 0 2 0 C2.01401855 1.15786011 2.01401855 1.15786011 2.02832031 2.33911133 C2.08194706 5.83089582 2.16561017 9.32132931 2.25 12.8125 C2.26417969 14.02744141 2.27835937 15.24238281 2.29296875 16.49414062 C2.32519531 17.65751953 2.35742188 18.82089844 2.390625 20.01953125 C2.41157227 21.09307861 2.43251953 22.16662598 2.45410156 23.27270508 C2.73064945 26.13098885 2.73064945 26.13098885 5.01074219 27.6862793 C5.66719727 28.11980713 6.32365234 28.55333496 7 29 C7.4375 32 7.4375 32 7 35 C6.2565332 35.62189209 6.2565332 35.62189209 5.49804688 36.25634766 C3.17650821 38.95850364 3.61359299 41.39660032 3.59375 44.8984375 C3.58291382 45.57041168 3.57207764 46.24238586 3.56091309 46.9347229 C3.5266655 49.08157969 3.51106749 51.22790608 3.5 53.375 C3.48538765 56.19581956 3.45160352 59.01546306 3.40625 61.8359375 C3.39916016 63.08938965 3.39207031 64.3428418 3.38476562 65.63427734 C2.84541142 70.35225775 1.03120011 72.87781164 -2.125 76.3125 C-6.13751351 78.66767097 -9.45313931 78.80050364 -14 78 C-18.07381732 75.92605664 -20.36351035 74.25487308 -22 70 C-22.30078125 67.125 -22.30078125 67.125 -22.3125 64 C-22.32925781 62.96875 -22.34601563 61.9375 -22.36328125 60.875 C-21.96081368 57.68988032 -21.13430263 56.34266462 -19 54 C-18.30062798 55.4317616 -17.61587282 56.87067032 -16.9375 58.3125 C-16.36322266 59.51326172 -16.36322266 59.51326172 -15.77734375 60.73828125 C-15 63 -15 63 -16 66 C-16.33 65.67 -16.66 65.34 -17 65 C-17.21620175 67.6664882 -17.30894168 69.44004321 -16 71.8125 C-12.86940917 73.6712883 -9.55225172 73.55145843 -6 73 C-2.75150023 71.27773504 -2.75150023 71.27773504 -2 68 C-1.77378689 63.85138864 -1.77178107 59.7026803 -1.75976562 55.54833984 C-1.75003374 53.50707648 -1.71898369 51.46680957 -1.6875 49.42578125 C-1.68234375 48.14058594 -1.6771875 46.85539062 -1.671875 45.53125 C-1.6625293 44.35111328 -1.65318359 43.17097656 -1.64355469 41.95507812 C-2.04271212 38.64589899 -2.58959992 38.10185634 -5 36 C-5.375 32.5 -5.375 32.5 -5 29 C-4.50709473 28.54568604 -4.01418945 28.09137207 -3.50634766 27.62329102 C-1.36632992 25.31713576 -1.58644673 23.63349411 -1.5234375 20.52734375 C-1.4925 19.46322266 -1.4615625 18.39910156 -1.4296875 17.30273438 C-1.41164063 16.19220703 -1.39359375 15.08167969 -1.375 13.9375 C-1.32411949 11.73818988 -1.26961615 9.53895963 -1.2109375 7.33984375 C-1.18459229 5.87599243 -1.18459229 5.87599243 -1.15771484 4.38256836 C-1 2 -1 2 0 0 Z " fill="#0F0F0F" transform="translate(449,252)"/>
<path d="M0 0 C0.33 0 0.66 0 1 0 C1 37.95 1 75.9 1 115 C0.34 115 -0.32 115 -1 115 C-1.495 115.99 -1.495 115.99 -2 117 C-2.04671776 102.33572891 -2.08198774 87.67146768 -2.10362434 73.0071373 C-2.11393756 66.19825503 -2.12799872 59.389419 -2.15087891 52.58056641 C-2.17293976 46.01240389 -2.18456165 39.44427687 -2.18975449 32.87607574 C-2.19345621 30.36739596 -2.20068452 27.85871888 -2.21146011 25.35005951 C-2.22593073 21.84236416 -2.22797978 18.33486872 -2.22705078 14.82714844 C-2.23424133 13.78489609 -2.24143188 12.74264374 -2.24884033 11.66880798 C-2.24471634 10.23436089 -2.24471634 10.23436089 -2.24050903 8.77093506 C-2.24235262 7.94132137 -2.24419621 7.11170769 -2.24609566 6.25695419 C-1.97574168 3.77752584 -1.24158743 2.14520031 0 0 Z " fill="#010101" transform="translate(450,137)"/>
<path d="M0 0 C2.0625 0.4375 2.0625 0.4375 4 1 C2.99954733 8.48987542 -1.95806657 14.51795866 -7.6953125 19.19921875 C-14.42699893 23.67138369 -20.75241813 26.51547387 -29 26 C-27.65675551 22.91717098 -26.2840503 21.13064961 -23.65625 19.046875 C-22.99117432 18.51352539 -22.32609863 17.98017578 -21.64086914 17.43066406 C-20.93438232 16.87604492 -20.22789551 16.32142578 -19.5 15.75 C-18.78255615 15.17733398 -18.0651123 14.60466797 -17.32592773 14.01464844 C-15.2221239 12.33689855 -13.11140354 10.66816802 -11 9 C-9.01839813 7.4196852 -7.04056335 5.83474742 -5.0625 4.25 C-3.90427734 3.32960937 -3.90427734 3.32960937 -2.72265625 2.390625 C-1.07750981 1.11285933 -1.07750981 1.11285933 0 0 Z " fill="#F6F6F5" transform="translate(301,214)"/>
<path d="M0 0 C0.81210937 0.36351562 0.81210937 0.36351562 1.640625 0.734375 C-2.33217893 9.34848352 -9.47429891 14.82644454 -17.359375 19.734375 C-18.04128906 20.15976563 -18.72320312 20.58515625 -19.42578125 21.0234375 C-24.57058267 23.91284113 -29.51393253 24.49480769 -35.359375 24.734375 C-32.14364167 20.18488967 -28.49787642 17.49953603 -23.921875 14.484375 C-22.4903955 13.52677363 -21.05941339 12.56842832 -19.62890625 11.609375 C-18.91428223 11.13242188 -18.1996582 10.65546875 -17.46337891 10.1640625 C-15.46603783 8.80685324 -13.50804062 7.40926777 -11.55859375 5.984375 C-10.97456787 5.56188477 -10.39054199 5.13939453 -9.78881836 4.70410156 C-8.19818125 3.54887217 -6.61449838 2.38408511 -5.03125 1.21875 C-2.359375 -0.265625 -2.359375 -0.265625 0 0 Z " fill="#EBECEA" transform="translate(344.359375,186.265625)"/>
<path d="M0 0 C-2.92763327 6.91986046 -7.6350422 10.84201601 -14.0625 14.25 C-14.67416016 14.58773437 -15.28582031 14.92546875 -15.91601562 15.2734375 C-17.60154746 16.19911336 -19.30033622 17.1005355 -21 18 C-21.69480469 18.39445312 -22.38960938 18.78890625 -23.10546875 19.1953125 C-25.50298393 20.21363854 -27.65895656 20.42044394 -30.25 20.625 C-31.14203125 20.69976562 -32.0340625 20.77453125 -32.953125 20.8515625 C-33.62859375 20.90054688 -34.3040625 20.94953125 -35 21 C-35 20.01 -35 19.02 -35 18 C-34.19820313 17.55011719 -33.39640625 17.10023438 -32.5703125 16.63671875 C-31.43335938 15.99347656 -30.29640625 15.35023438 -29.125 14.6875 C-28.51164795 14.34082275 -27.8982959 13.99414551 -27.26635742 13.63696289 C-23.51517271 11.49695651 -19.82409141 9.28338339 -16.16796875 6.984375 C-14.95826416 6.2270105 -14.95826416 6.2270105 -13.72412109 5.4543457 C-12.12911847 4.45113136 -10.53946382 3.4393585 -8.95556641 2.41870117 C-8.2238623 1.95955322 -7.4921582 1.50040527 -6.73828125 1.02734375 C-6.08899658 0.61218506 -5.43971191 0.19702637 -4.77075195 -0.23071289 C-3 -1 -3 -1 0 0 Z " fill="#ECECEB" transform="translate(386,162)"/>
<path d="M0 0 C0.73089844 0.36351562 0.73089844 0.36351562 1.4765625 0.734375 C13.87788827 6.59681991 25.86284525 8.63928114 39.375 9.25 C40.80476719 9.32665267 42.23445658 9.4047712 43.6640625 9.484375 C47.10864849 9.67306498 50.55384291 9.8422195 54 10 C53.67 10.66 53.34 11.32 53 12 C51.96101563 11.97679687 50.92203125 11.95359375 49.8515625 11.9296875 C42.67704686 11.81948253 35.93324909 11.82377303 28.91796875 13.5625 C27 14 27 14 24 14 C24 13.34 24 12.68 24 12 C19.87387385 11.55155147 19.87387385 11.55155147 17.25 14.5 C16.5075 15.325 15.765 16.15 15 17 C9.53829711 12.46040279 4.22829281 7.74783554 0 2 C0 1.34 0 0.68 0 0 Z " fill="#F0F2EE" transform="translate(232,174)"/>
<path d="M0 0 C-3.85919461 8.88008556 -13.11916 13.66296783 -21.46875 17.65625 C-26.31653516 19.5009824 -30.83706567 20.0737562 -36 20 C-34.76461417 16.2773707 -32.70073489 14.9838197 -29.30175781 13.20898438 C-28.66592773 12.89251953 -28.03009766 12.57605469 -27.375 12.25 C-26.71854492 11.91291016 -26.06208984 11.57582031 -25.38574219 11.22851562 C-23.98809106 10.51349978 -22.58760063 9.80401143 -21.18457031 9.09960938 C-18.96628457 7.98302924 -16.76001841 6.84505019 -14.5546875 5.703125 C-13.12028739 4.96778221 -11.68540468 4.23337991 -10.25 3.5 C-9.23172119 2.9745459 -9.23172119 2.9745459 -8.19287109 2.43847656 C-5.26827685 0.96691736 -3.32054218 0 0 0 Z " fill="#E5E5E5" transform="translate(427,139)"/>
<path d="M0 0 C0.66 0.33 1.32 0.66 2 1 C-6.64059468 13.08197766 -17.09823743 20.17096669 -31 25 C-31.99 25 -32.98 25 -34 25 C-34 24.34 -34 23.68 -34 23 C-34.99 22.34 -35.98 21.68 -37 21 C-35.89205078 20.77957031 -35.89205078 20.77957031 -34.76171875 20.5546875 C-20.96115909 17.50348371 -11.87558273 10.87558273 -2 1 C-1.34 0.67 -0.68 0.34 0 0 Z " fill="#191A19" transform="translate(346,190)"/>
<path d="M0 0 C0 3.59734407 -0.68031389 4.34893016 -3 7 C-6.52711168 10.13521038 -10.76758066 11.99921995 -15 14 C-15.78375 14.391875 -16.5675 14.78375 -17.375 15.1875 C-21.49345996 16.46226142 -25.7144654 16.6837858 -30 17 C-30.33 16.01 -30.66 15.02 -31 14 C-30.40316406 13.96003906 -29.80632812 13.92007813 -29.19140625 13.87890625 C-22.3831686 13.05948983 -16.98097185 10.75647017 -11 7.5625 C-10.2582251 7.16683838 -9.5164502 6.77117676 -8.75219727 6.36352539 C-5.38750666 4.50952796 -2.64099185 2.82681317 0 0 Z " fill="#181818" transform="translate(422,145)"/>
<path d="M0 0 C2.55699292 2.32316761 4.12091513 4.74895135 5.8125 7.75 C9.11837932 13.37492898 12.52739146 18.35159431 18 22 C18 22.66 18 23.32 18 24 C12.11823366 23.19189645 8.94225141 20.27214692 5 16 C1.47182068 10.9395828 0.43438792 6.0814309 0 0 Z " fill="#D6D8D3" transform="translate(201,193)"/>
<path d="M0 0 C0.66 0.33 1.32 0.66 2 1 C-1.34312364 7.94986277 -8.17667357 10.30982561 -15 13 C-18.37024392 13.71591517 -21.55768945 14.05552114 -25 14 C-25 13.01 -25 12.02 -25 11 C-23.824375 10.835 -22.64875 10.67 -21.4375 10.5 C-14.6801043 9.04040253 -4.95123412 4.95123412 0 0 Z " fill="#1C1C1B" transform="translate(377,172)"/>
<path d="M0 0 C2.53797513 3.06156885 3.83853263 5.96201251 5.1875 9.6875 C7.4044598 15.24350048 10.23656869 19.02988263 14.42578125 23.2578125 C16 25 16 25 16 27 C10.36046506 25.63284002 7.30577179 21.47588409 4 17 C0.92626594 11.4672787 0.36227666 6.20867238 0 0 Z " fill="#DCDCD8" transform="translate(209,186)"/>
<path d="M0 0 C11.55 0.66 23.1 1.32 35 2 C34.67 2.66 34.34 3.32 34 4 C32.96101563 3.97679687 31.92203125 3.95359375 30.8515625 3.9296875 C23.67704686 3.81948253 16.93324909 3.82377303 9.91796875 5.5625 C8 6 8 6 5 6 C5 5.34 5 4.68 5 4 C4.34 4 3.68 4 3 4 C3 3.01 3 2.02 3 1 C2.01 0.67 1.02 0.34 0 0 Z " fill="#D5D7D2" transform="translate(251,182)"/>
<path d="M0 0 C3.75212276 2.01502889 5.63644095 3.45466142 8 7 C7.030625 6.67 6.06125 6.34 5.0625 6 C0.02890158 4.59669377 -5.19793907 3.81747887 -10.12890625 5.8984375 C-11.80143573 6.85127248 -13.4088771 7.91668228 -15 9 C-14.75787346 5.73129165 -13.72467093 4.7045249 -11.4375 2.25 C-7.78785698 -0.57694172 -4.46906647 -0.97927751 0 0 Z " fill="#E4E5E2" transform="translate(253,149)"/>
<path d="M0 0 C0.99 0.33 1.98 0.66 3 1 C2.34 2.32 1.68 3.64 1 5 C0.34 5 -0.32 5 -1 5 C-1 5.66 -1 6.32 -1 7 C-1.66 7 -2.32 7 -3 7 C-3 7.66 -3 8.32 -3 9 C-3.66 9 -4.32 9 -5 9 C-5.28875 9.639375 -5.5775 10.27875 -5.875 10.9375 C-7 13 -7 13 -9 14 C-9.99 13.67 -10.98 13.34 -12 13 C-12 13.66 -12 14.32 -12 15 C-13.98 15 -15.96 15 -18 15 C-15.91943649 12.76532067 -13.89839079 11.25428597 -11.25 9.75 C-6.8524651 7.08704831 -3.47013536 3.76292803 0 0 Z " fill="#DDDCDC" transform="translate(430,142)"/>
<path d="M0 0 C-0.0625 1.75 -0.0625 1.75 -1 4 C-5.50741695 7.18170608 -8.36344126 8.54990817 -14 8 C-12.79240205 4.37720616 -11.94596794 4.08839169 -8.6875 2.3125 C-7.90761719 1.87550781 -7.12773437 1.43851563 -6.32421875 0.98828125 C-4 0 -4 0 0 0 Z " fill="#CDCECD" transform="translate(446,130)"/>
<path d="M0 0 C2.95397701 3.63566401 5.76536352 7.35649031 8.53515625 11.1328125 C9.92030783 12.89841904 11.37917569 14.4513192 13 16 C8.57649669 15.49445676 6.21928398 14.04984798 3 11 C0.13640649 7.24770505 -0.32673956 4.68326696 0 0 Z " fill="#CCCDCC" transform="translate(196,203)"/>
<path d="M0 0 C1.79244141 0.01740234 1.79244141 0.01740234 3.62109375 0.03515625 C5.41740234 0.04869141 5.41740234 0.04869141 7.25 0.0625 C8.17683594 0.07410156 9.10367187 0.08570312 10.05859375 0.09765625 C10.05859375 1.41765625 10.05859375 2.73765625 10.05859375 4.09765625 C5.76859375 4.09765625 1.47859375 4.09765625 -2.94140625 4.09765625 C-3.27140625 3.10765625 -3.60140625 2.11765625 -3.94140625 1.09765625 C-2.94140625 0.09765625 -2.94140625 0.09765625 0 0 Z " fill="#EFF0EA" transform="translate(291.94140625,119.90234375)"/>
<path d="M0 0 C-1 3 -1 3 -2.9609375 4.16796875 C-3.75757813 4.50441406 -4.55421875 4.84085938 -5.375 5.1875 C-6.56222656 5.70376953 -6.56222656 5.70376953 -7.7734375 6.23046875 C-10 7 -10 7 -13 7 C-13 6.34 -13 5.68 -13 5 C-13.99 4.34 -14.98 3.68 -16 3 C-14.08487728 2.49411853 -12.16783078 1.99551609 -10.25 1.5 C-8.64898437 1.08234375 -8.64898437 1.08234375 -7.015625 0.65625 C-4 0 -4 0 0 0 Z " fill="#212221" transform="translate(325,208)"/>
<path d="M0 0 C2.08745045 3.13117567 2.27653996 4.06946224 2.4140625 7.66796875 C2.45273438 8.56064453 2.49140625 9.45332031 2.53125 10.37304688 C2.57765625 11.76620117 2.57765625 11.76620117 2.625 13.1875 C2.66367188 14.12787109 2.70234375 15.06824219 2.7421875 16.03710938 C2.83643187 18.3578771 2.92204025 20.67863748 3 23 C2.01 23.33 1.02 23.66 0 24 C0 16.08 0 8.16 0 0 Z " fill="#D9DADA" transform="translate(176,335)"/>
<path d="M0 0 C0.66 0.33 1.32 0.66 2 1 C-3.25 6.25 -3.25 6.25 -8.125 6.625 C-9.03507812 6.69976562 -9.94515625 6.77453125 -10.8828125 6.8515625 C-11.93082031 6.92503906 -11.93082031 6.92503906 -13 7 C-13 6.01 -13 5.02 -13 4 C-12.39671875 3.87882813 -11.7934375 3.75765625 -11.171875 3.6328125 C-10.37265625 3.46523437 -9.5734375 3.29765625 -8.75 3.125 C-7.96109375 2.96257812 -7.1721875 2.80015625 -6.359375 2.6328125 C-3.96665457 2.08251721 -3.96665457 2.08251721 -1.828125 0.8671875 C-1.22484375 0.58101562 -0.6215625 0.29484375 0 0 Z " fill="#21211F" transform="translate(365,179)"/>
<path d="M0 0 C0 3.59734407 -0.68031389 4.34893016 -3 7 C-6.03950557 9.62026342 -9.38944989 11.2767829 -13 13 C-13.33 11.68 -13.66 10.36 -14 9 C-13.24074219 8.60167969 -12.48148437 8.20335937 -11.69921875 7.79296875 C-10.70535156 7.26316406 -9.71148437 6.73335937 -8.6875 6.1875 C-7.70136719 5.66542969 -6.71523438 5.14335937 -5.69921875 4.60546875 C-3.38334932 3.2280124 -1.76388999 2.00469409 0 0 Z " fill="#212121" transform="translate(422,145)"/>
<path d="M0 0 C0.66 0.33 1.32 0.66 2 1 C1.10796875 1.88042969 0.2159375 2.76085937 -0.703125 3.66796875 C-1.88555101 4.84101043 -3.06783519 6.01419509 -4.25 7.1875 C-4.83652344 7.76564453 -5.42304688 8.34378906 -6.02734375 8.93945312 C-9.24981837 12.14382396 -12.24173266 15.37465358 -15 19 C-15.66 18.67 -16.32 18.34 -17 18 C-11.80277951 11.34707654 -6.61170916 5.27855799 0 0 Z " fill="#1F1E1D" transform="translate(282,323)"/>
<path d="M0 0 C0.33 0.66 0.66 1.32 1 2 C1.68707031 1.89300781 2.37414062 1.78601563 3.08203125 1.67578125 C3.98308594 1.55589844 4.88414062 1.43601563 5.8125 1.3125 C6.70582031 1.18488281 7.59914063 1.05726563 8.51953125 0.92578125 C11 1 11 1 12.82421875 2.48046875 C13.40623047 3.23263672 13.40623047 3.23263672 14 4 C10.92382812 4.29296875 10.92382812 4.29296875 7.84765625 4.5859375 C7.23792969 4.72257813 6.62820313 4.85921875 6 5 C5.67 5.66 5.34 6.32 5 7 C2.5 5.75 2.5 5.75 0 4 C0 2.68 0 1.36 0 0 Z " fill="#2B2B2B" transform="translate(271,238)"/>
<path d="M0 0 C0 3.75366417 -1.11420063 5.78715662 -3 9 C-3.99 9.33 -4.98 9.66 -6 10 C-7.20882096 12.00016466 -7.20882096 12.00016466 -8 14 C-9.32 13.01 -10.64 12.02 -12 11 C-11.30132812 10.37351563 -10.60265625 9.74703125 -9.8828125 9.1015625 C-8.97273438 8.28429687 -8.06265625 7.46703125 -7.125 6.625 C-5.76761719 5.40683594 -5.76761719 5.40683594 -4.3828125 4.1640625 C-2.89103817 2.80923795 -1.42494565 1.42494565 0 0 Z " fill="#E4E4E3" transform="translate(388,166)"/>
<path d="M0 0 C0.33 0 0.66 0 1 0 C1.12375 0.969375 1.2475 1.93875 1.375 2.9375 C1.684375 4.4534375 1.684375 4.4534375 2 6 C2.66 6.33 3.32 6.66 4 7 C3.01 9.97 2.02 12.94 1 16 C-1.14680135 11.70639731 -1.12524159 10.35222258 -0.625 5.75 C-0.51414063 4.67234375 -0.40328125 3.5946875 -0.2890625 2.484375 C-0.19367188 1.66453125 -0.09828125 0.8446875 0 0 Z " fill="#DBDCDA" transform="translate(167,191)"/>
<path d="M0 0 C3.59659478 4.79545971 3.62328959 7.2575615 3 13 C2 16.0625 2 16.0625 1 18 C0.67 18 0.34 18 0 18 C0 12.06 0 6.12 0 0 Z " fill="#3F3F3F" transform="translate(180,369)"/>
<path d="M0 0 C0.66 0.33 1.32 0.66 2 1 C1.01 2.32 0.02 3.64 -1 5 C0.32 5.33 1.64 5.66 3 6 C-0.3 6.33 -3.6 6.66 -7 7 C-7 6.01 -7 5.02 -7 4 C-1.7265625 0.77734375 -1.7265625 0.77734375 0 0 Z " fill="#D2D3D0" transform="translate(358,176)"/>
<path d="M0 0 C0.33 0 0.66 0 1 0 C1.36075949 5.41139241 1.36075949 5.41139241 -0.1875 7.9375 C-2 9 -2 9 -4.6875 8.6875 C-5.450625 8.460625 -6.21375 8.23375 -7 8 C-6.02133662 6.85373678 -5.04205413 5.70800212 -4.0625 4.5625 C-3.51722656 3.92441406 -2.97195313 3.28632813 -2.41015625 2.62890625 C-1.63204305 1.73008851 -0.84063472 0.84063472 0 0 Z " fill="#DEDFDD" transform="translate(344,195)"/>
<path d="M0 0 C1.43903046 0.62146808 2.87616793 1.24732059 4.3125 1.875 C5.51326172 2.39707031 5.51326172 2.39707031 6.73828125 2.9296875 C9 4 9 4 12 6 C9.69 6.66 7.38 7.32 5 8 C0 2.25 0 2.25 0 0 Z " fill="#D3D4CF" transform="translate(232,174)"/>
<path d="M0 0 C0.66 0.99 1.32 1.98 2 3 C-1.0684847 5.97550031 -2.46236331 6.96474513 -6.8125 7.25 C-7.864375 7.1675 -8.91625 7.085 -10 7 C-9.01 6.34 -8.02 5.68 -7 5 C-5.76779826 4.12927928 -4.53869541 3.25415898 -3.3125 2.375 C-2.37857422 1.70597656 -2.37857422 1.70597656 -1.42578125 1.0234375 C-0.95527344 0.68570313 -0.48476563 0.34796875 0 0 Z " fill="#D8DAD8" transform="translate(336,203)"/>
<path d="M0 0 C0.33 0.66 0.66 1.32 1 2 C0.0625 4.125 0.0625 4.125 -1 6 C-1.99 5.67 -2.98 5.34 -4 5 C-4 5.66 -4 6.32 -4 7 C-5.98 7 -7.96 7 -10 7 C-7.2180632 3.72713318 -3.72045933 2.03572303 0 0 Z " fill="#D6D7D6" transform="translate(422,150)"/>
<path d="M0 0 C2 2 2 2 2.1953125 4.1640625 C2.16050781 5.38222656 2.16050781 5.38222656 2.125 6.625 C2.10695313 7.44226563 2.08890625 8.25953125 2.0703125 9.1015625 C2.04710937 9.72804687 2.02390625 10.35453125 2 11 C1.67 11 1.34 11 1 11 C0.67 12.65 0.34 14.3 0 16 C-0.33 16 -0.66 16 -1 16 C-1.02692484 13.70839681 -1.04636124 11.41670454 -1.0625 9.125 C-1.07410156 7.84882813 -1.08570313 6.57265625 -1.09765625 5.2578125 C-1 2 -1 2 0 0 Z " fill="#C2C1C3" transform="translate(310,129)"/>
<path d="M0 0 C4.41236526 0.96856798 5.16379962 2.21839949 8 6 C2.06 4.515 2.06 4.515 -4 3 C-2.68 2.01 -1.36 1.02 0 0 Z " fill="#D2D3CF" transform="translate(253,150)"/>
<path d="M0 0 C0.66 0.33 1.32 0.66 2 1 C0.02 2.98 -1.96 4.96 -4 7 C-3.67 7.66 -3.34 8.32 -3 9 C-4.65 9 -6.3 9 -8 9 C-6.4169423 4.7257442 -3.49431596 2.73468206 0 0 Z " fill="#CECECE" transform="translate(280,231)"/>
<path d="M0 0 C4.92127034 -0.16682272 8.50343896 -0.24828052 13 2 C9.25 4 9.25 4 7 4 C7 3.34 7 2.68 7 2 C4.69 1.67 2.38 1.34 0 1 C0 0.67 0 0.34 0 0 Z " fill="#D4D4D1" transform="translate(245,372)"/>
<path d="M0 0 C2.40072955 2.88087546 4.47291037 5.56404834 6 9 C3.5625 8.625 3.5625 8.625 1 8 C-0.35439668 5.29120665 -0.06501451 2.99066732 0 0 Z " fill="#E1E1E0" transform="translate(196,203)"/>
<path d="M0 0 C-1.22934015 3.68802044 -2.93859378 4.72356973 -6 7 C-6.33 5.35 -6.66 3.7 -7 2 C-2.25 0 -2.25 0 0 0 Z " fill="#E4E3E0" transform="translate(277,327)"/>
<path d="M0 0 C0 1.32 0 2.64 0 4 C-4.625 6.125 -4.625 6.125 -8 5 C-2.25 0 -2.25 0 0 0 Z " fill="#111111" transform="translate(371,177)"/>
<path d="M0 0 C0.66 0.33 1.32 0.66 2 1 C2 3.64 2 6.28 2 9 C1.01 8.67 0.02 8.34 -1 8 C-1.625 5.125 -1.625 5.125 -2 2 C-1.34 1.34 -0.68 0.68 0 0 Z " fill="#EDEEED" transform="translate(176,329)"/>
<path d="M0 0 C1.65 0 3.3 0 5 0 C2.375 4.875 2.375 4.875 -1 6 C-0.67 4.02 -0.34 2.04 0 0 Z " fill="#E1E1DD" transform="translate(294,226)"/>
<path d="M0 0 C0.66 0.99 1.32 1.98 2 3 C2.66 3 3.32 3 4 3 C3.43628586 6.26954202 2.50037734 7.82575883 0 10 C-0.66 9.67 -1.32 9.34 -2 9 C-1.67 8.67 -1.34 8.34 -1 8 C-0.76924918 6.65252916 -0.58846937 5.29622435 -0.4375 3.9375 C-0.293125 2.638125 -0.14875 1.33875 0 0 Z " fill="#D9DAD6" transform="translate(284,195)"/>
<path d="M0 0 C0 3.97378549 -1.34753657 5.12649795 -4 8 C-6.25 9.3125 -6.25 9.3125 -8 10 C-6.34908222 5.70761377 -3.26245434 3.1206085 0 0 Z " fill="#121212" transform="translate(344,193)"/>
<path d="M0 0 C2.64 0.33 5.28 0.66 8 1 C6.8125 2.5625 6.8125 2.5625 5 4 C2.3125 3.6875 2.3125 3.6875 0 3 C0 2.01 0 1.02 0 0 Z " fill="#D0D0CE" transform="translate(195,161)"/>
<path d="M0 0 C1.65 0 3.3 0 5 0 C5.33 0.99 5.66 1.98 6 3 C4.02 3.99 2.04 4.98 0 6 C-0.33 5.01 -0.66 4.02 -1 3 C-0.01 2.34 0.98 1.68 2 1 C1.34 0.67 0.68 0.34 0 0 Z " fill="#EEEFED" transform="translate(375,152)"/>
<path d="M0 0 C-0.33 0.99 -0.66 1.98 -1 3 C-4.41270242 4.51675663 -7.44169126 3.72783588 -11 3 C-11 2.67 -11 2.34 -11 2 C-9.54494642 1.47007308 -8.08581873 0.9513211 -6.625 0.4375 C-5.81289063 0.14746094 -5.00078125 -0.14257812 -4.1640625 -0.44140625 C-2 -1 -2 -1 0 0 Z " fill="#292929" transform="translate(444,136)"/>
<path d="M0 0 C0.99 1.32 1.98 2.64 3 4 C2.01 4 1.02 4 0 4 C0 4.66 0 5.32 0 6 C-1.32 5.67 -2.64 5.34 -4 5 C-2.25 1.125 -2.25 1.125 0 0 Z " fill="#E8E7E5" transform="translate(266,391)"/>
<path d="M0 0 C0.33 0 0.66 0 1 0 C1.19392201 5.52677733 0.7479503 9.75614911 -1 15 C-1.33 15 -1.66 15 -2 15 C-2.19392201 9.47322267 -1.7479503 5.24385089 0 0 Z " fill="#B1B2AE" transform="translate(286,357)"/>
<path d="M0 0 C0.66 0.33 1.32 0.66 2 1 C2 1.99 2 2.98 2 4 C-0.64 4.33 -3.28 4.66 -6 5 C-2.25 1.125 -2.25 1.125 0 0 Z " fill="#131313" transform="translate(287,236)"/>
<path d="M0 0 C-2.64 1.65 -5.28 3.3 -8 5 C-8.33 4.34 -8.66 3.68 -9 3 C-6.07868595 -0.19953443 -4.37453972 -1.45817991 0 0 Z " fill="#DADAD6" transform="translate(293,233)"/>
<path d="M0 0 C-0.33 0.99 -0.66 1.98 -1 3 C-2.98 3 -4.96 3 -7 3 C-6.67 2.01 -6.34 1.02 -6 0 C-3.50907189 -1.24546405 -2.58919267 -0.7767578 0 0 Z " fill="#C0C0BF" transform="translate(439,135)"/>
<path d="M0 0 C-1.50223584 4.20626034 -4.28550034 5.73900021 -8 8 C-6.48291727 4.46014029 -4.24676932 0 0 0 Z " fill="#1E1E1D" transform="translate(302,228)"/>
<path d="M0 0 C1.670625 0.061875 1.670625 0.061875 3.375 0.125 C1.32209452 1.15145274 -0.72475903 2.17060413 -2.8125 3.125 C-4.79701523 3.99644569 -4.79701523 3.99644569 -5.625 6.125 C-6.285 6.125 -6.945 6.125 -7.625 6.125 C-4.84462617 0.16705607 -4.84462617 0.16705607 0 0 Z " fill="#CECECA" transform="translate(231.625,170.875)"/>
<path d="M0 0 C-1.0625 1.5625 -1.0625 1.5625 -3 3 C-6.6875 2.6875 -6.6875 2.6875 -10 2 C-6.80505194 -1.19494806 -4.22040044 -1.35655728 0 0 Z " fill="#2F302E" transform="translate(281,128)"/>
<path d="M0 0 C0.33 0 0.66 0 1 0 C1.33 3.96 1.66 7.92 2 12 C1.01 12.33 0.02 12.66 -1 13 C-0.67 8.71 -0.34 4.42 0 0 Z " fill="#E5E5E4" transform="translate(177,346)"/>
<path d="M0 0 C3.96 0.33 7.92 0.66 12 1 C12 1.33 12 1.66 12 2 C9.03 2 6.06 2 3 2 C2.67 2.66 2.34 3.32 2 4 C1.34 2.68 0.68 1.36 0 0 Z " fill="#B8B8B5" transform="translate(255,263)"/>
<path d="M0 0 C0.66 0.33 1.32 0.66 2 1 C0.15794162 3.54379491 -1.72478134 5.83312509 -4 8 C-4.33 7.01 -4.66 6.02 -5 5 C-3.35 3.35 -1.7 1.7 0 0 Z " fill="#D7D7D4" transform="translate(243,150)"/>
<path d="M0 0 C1.65 1.65 3.3 3.3 5 5 C4.01 5.99 3.02 6.98 2 8 C0.23537317 4.91190305 0 3.76687864 0 0 Z " fill="#DADAD7" transform="translate(269,395)"/>
<path d="M0 0 C1.74627478 2.61941217 2.38722388 4.03824877 3 7 C2.01 7 1.02 7 0 7 C-1.125 2.25 -1.125 2.25 0 0 Z " fill="#20211F" transform="translate(288,387)"/>
<path d="M0 0 C0.99 0 1.98 0 3 0 C3 1.65 3 3.3 3 5 C2.01 5 1.02 5 0 5 C-0.5625 3.0625 -0.5625 3.0625 -1 1 C-0.67 0.67 -0.34 0.34 0 0 Z " fill="#E2E3E1" transform="translate(176,390)"/>
<path d="M0 0 C1.32 0.33 2.64 0.66 4 1 C3.67 2.32 3.34 3.64 3 5 C2.01 4.67 1.02 4.34 0 4 C0 2.68 0 1.36 0 0 Z " fill="#D4D4D2" transform="translate(448,282)"/>
<path d="M0 0 C0.66 0.33 1.32 0.66 2 1 C-1.465 3.97 -1.465 3.97 -5 7 C-5.66 6.67 -6.32 6.34 -7 6 C-4.69 4.02 -2.38 2.04 0 0 Z " fill="#D0D0CE" transform="translate(295,219)"/>
<path d="M0 0 C1.32 0.66 2.64 1.32 4 2 C2.71034824 3.37562854 1.37310707 4.70766393 0 6 C-0.66 6 -1.32 6 -2 6 C-1.34 4.02 -0.68 2.04 0 0 Z " fill="#DEDEDB" transform="translate(311,193)"/>
<path d="M0 0 C0 3 0 3 -2.5 5.6875 C-3.325 6.450625 -4.15 7.21375 -5 8 C-5.66 7.67 -6.32 7.34 -7 7 C-4.69 4.69 -2.38 2.38 0 0 Z " fill="#B2B2B2" transform="translate(388,166)"/>
<path d="M0 0 C0.99 0.33 1.98 0.66 3 1 C2.34 2.32 1.68 3.64 1 5 C0.01 4.67 -0.98 4.34 -2 4 C-1.34 2.68 -0.68 1.36 0 0 Z " fill="#DDDFDA" transform="translate(281,147)"/>
<path d="M0 0 C2.97 0.495 2.97 0.495 6 1 C3.53721199 3.46278801 1.29323018 3.99771255 -2 5 C-2 4.34 -2 3.68 -2 3 C-1.34 3 -0.68 3 0 3 C0 2.01 0 1.02 0 0 Z " fill="#E0E0DE" transform="translate(391,145)"/>
</svg>
